<svg width="14" height="14" viewBox="0 0 14 14" fill="none" xmlns="http://www.w3.org/2000/svg">
<path d="M2.92149 4.52087C2.83502 4.52095 2.75051 4.54665 2.67863 4.59473C2.60675 4.64281 2.55074 4.71111 2.51766 4.791C2.48457 4.8709 2.47591 4.9588 2.49276 5.04362C2.50961 5.12844 2.55122 5.20636 2.61232 5.26754L6.69566 9.35087C6.77769 9.4328 6.88889 9.47882 7.00482 9.47882C7.12076 9.47882 7.23196 9.4328 7.31399 9.35087L11.3973 5.26754C11.4584 5.20636 11.5 5.12844 11.5169 5.04362C11.5337 4.9588 11.5251 4.8709 11.492 4.791C11.4589 4.71111 11.4029 4.64281 11.331 4.59473C11.2591 4.54665 11.1746 4.52095 11.0882 4.52087H2.92149Z" fill="#C8C8C8"/>
</svg>
